<?xml version="1.0" encoding="UTF-8"?>
<svg xmlns="http://www.w3.org/2000/svg" width="800" height="450" viewBox="0 0 800 450" font-family="sans-serif" font-size="13">
<rect width="800" height="450" fill="white"/>
<text x="400.0" y="28" text-anchor="middle" font-size="17">Rendimiento del normalizador estadistico</text>
<line x1="103.7" y1="50" x2="103.7" y2="390" stroke="#ddd"/>
<text x="103.7" y="410" text-anchor="middle">10³</text>
<line x1="238.3" y1="50" x2="238.3" y2="390" stroke="#ddd"/>
<text x="238.3" y="410" text-anchor="middle">10⁴</text>
<line x1="372.9" y1="50" x2="372.9" y2="390" stroke="#ddd"/>
<text x="372.9" y="410" text-anchor="middle">10⁵</text>
<line x1="507.6" y1="50" x2="507.6" y2="390" stroke="#ddd"/>
<text x="507.6" y="410" text-anchor="middle">10⁶</text>
<line x1="642.2" y1="50" x2="642.2" y2="390" stroke="#ddd"/>
<text x="642.2" y="410" text-anchor="middle">10⁷</text>
<line x1="70" y1="390.0" x2="770" y2="390.0" stroke="#ddd"/>
<text x="62" y="394.0" text-anchor="end">0</text>
<line x1="70" y1="361.8" x2="770" y2="361.8" stroke="#ddd"/>
<text x="62" y="365.8" text-anchor="end">1</text>
<line x1="70" y1="333.7" x2="770" y2="333.7" stroke="#ddd"/>
<text x="62" y="337.7" text-anchor="end">2</text>
<line x1="70" y1="305.5" x2="770" y2="305.5" stroke="#ddd"/>
<text x="62" y="309.5" text-anchor="end">3</text>
<line x1="70" y1="277.3" x2="770" y2="277.3" stroke="#ddd"/>
<text x="62" y="281.3" text-anchor="end">4</text>
<line x1="70" y1="249.2" x2="770" y2="249.2" stroke="#ddd"/>
<text x="62" y="253.2" text-anchor="end">5</text>
<line x1="70" y1="221.0" x2="770" y2="221.0" stroke="#ddd"/>
<text x="62" y="225.0" text-anchor="end">6</text>
<line x1="70" y1="192.8" x2="770" y2="192.8" stroke="#ddd"/>
<text x="62" y="196.8" text-anchor="end">7</text>
<line x1="70" y1="164.6" x2="770" y2="164.6" stroke="#ddd"/>
<text x="62" y="168.6" text-anchor="end">8</text>
<line x1="70" y1="136.5" x2="770" y2="136.5" stroke="#ddd"/>
<text x="62" y="140.5" text-anchor="end">9</text>
<line x1="70" y1="108.3" x2="770" y2="108.3" stroke="#ddd"/>
<text x="62" y="112.3" text-anchor="end">10</text>
<line x1="70" y1="80.1" x2="770" y2="80.1" stroke="#ddd"/>
<text x="62" y="84.1" text-anchor="end">11</text>
<line x1="70" y1="52.0" x2="770" y2="52.0" stroke="#ddd"/>
<text x="62" y="56.0" text-anchor="end">12</text>
<rect x="70" y="50" width="700" height="340" fill="none" stroke="black"/>
<line x1="70" y1="361.8" x2="770" y2="361.8" stroke="gray" stroke-dasharray="6 4" stroke-width="1.5"/>
<text x="764" y="356.8" text-anchor="end" fill="gray">Igual rendimiento (1x)</text>
<line x1="70" y1="164.6" x2="770" y2="164.6" stroke="#c0392b" stroke-dasharray="6 4" stroke-width="1.5"/>
<text x="764" y="159.6" text-anchor="end" fill="#c0392b">Referencia de 8×</text>
<polyline points="103.7,349.0 372.9,111.3 507.6,80.9 736.3,266.1" fill="none" stroke="#1f77b4" stroke-width="2"/>
<circle cx="103.7" cy="349.0" r="4.5" fill="#1f77b4"/>
<text x="103.7" y="339.0" text-anchor="middle">1.46x</text>
<circle cx="372.9" cy="111.3" r="4.5" fill="#1f77b4"/>
<text x="372.9" y="101.3" text-anchor="middle">9.89x</text>
<circle cx="507.6" cy="80.9" r="4.5" fill="#1f77b4"/>
<text x="507.6" y="70.9" text-anchor="middle">10.97x</text>
<circle cx="736.3" cy="266.1" r="4.5" fill="#1f77b4"/>
<text x="736.3" y="256.1" text-anchor="middle">4.40x</text>
<text x="420.0" y="435" text-anchor="middle">N (elementos, escala logaritmica)</text>
<text transform="translate(20 220.0) rotate(-90)" text-anchor="middle">Speedup = t_escalar / t_AVX2</text>
</svg>
